<svg width="220" height="65" fill="none" xmlns="http://www.w3.org/2000/svg"><path fill-rule="evenodd" clip-rule="evenodd" d="M11.585 0a2 2 0 00-1.932 1.48L.837 34.269C-3.263 49.516 8.224 64.5 24.013 64.5H67.243a2 2 0 001.93-1.48l1.195-4.443L85.442 2.52A2 2 0 0083.511 0H71.085a2 2 0 00-1.932 1.48L56.908 47.02a2 2 0 01-1.932 1.48h-9.29a2 2 0 01-1.93-2.52L55.441 2.52A2 2 0 0053.511 0H41.085a2 2 0 00-1.932 1.48L26.908 47.02a2 2 0 01-1.932 1.48h-.963c-5.263 0-9.092-4.995-7.725-10.077l9.654-35.904A2 2 0 0024.011 0H11.585z" fill="rgb(255,45,85)"/><path d="M89.689 13.367c-.306 1.266.518 2.52 1.656 2.52h28.475c1.645 0 2.351 2.41 1.043 3.564l-39.54 29.037a2.02 2.02 0 00-.612 1.045L78.064 61.48c-.309 1.279.535 2.54 1.684 2.52l57.45-.928c.759-.013 1.42-.6 1.627-1.444l2.527-11.288c.314-1.28-.528-2.546-1.68-2.527l-26.602.397c-1.657.029-2.386-2.402-1.068-3.564L148.5 15.068c.295-.26.509-.624.611-1.037l2.823-11.504C152.245 1.26 151.42 0 150.28 0H94.223c-.771 0-1.448.594-1.656 1.452L89.69 13.367z" fill="rgb(255,45,85)"/><path fill-rule="evenodd" clip-rule="evenodd" d="M176.247 0a2 2 0 011.937 2.499l-11.07 42.978c-.328 1.273.643 2.512 1.948 2.358a24.002 24.002 0 0019.161-14.18l14.262-32.46A2 2 0 01204.316 0h13.107a2 2 0 011.831 2.805L202.871 40.09A40 40 0 01166.25 64H147.251a1.11 1.11 0 01-1.074-1.385l2.218-8.61L161.919 1.5A2 2 0 01163.856 0h12.391z" fill="rgb(255,45,85)"/></svg>
